HIERARCHY
ROOT Hips
{
	OFFSET 0.000000 0.000000 0.000000
	CHANNELS 6 Xposition Yposition Zposition Zrotation Yrotation Xrotation 
	JOINT LowerBack
	{
		OFFSET 0.000000 0.000000 0.000000
		CHANNELS 3 Zrotation Yrotation Xrotation
		JOINT Spine
		{
			OFFSET 0.028270 2.035590 -0.193380
			CHANNELS 3 Zrotation Yrotation Xrotation
			JOINT Spine1
			{
				OFFSET 0.056720 2.048850 -0.042750
				CHANNELS 3 Zrotation Yrotation Xrotation
				JOINT Neck
				{
					OFFSET 0.000000 0.000000 0.000000
					CHANNELS 3 Zrotation Yrotation Xrotation
					JOINT Neck1
					{
						OFFSET -0.054170 1.746240 0.172020
						CHANNELS 3 Zrotation Yrotation Xrotation
						JOINT Head
						{
							OFFSET 0.104070 1.761360 -0.123970
							CHANNELS 3 Zrotation Yrotation Xrotation
							End Site
							{
								OFFSET 0.000000 0.000000 0.000000
							}
						}
					}
				}
				JOINT LeftShoulder
				{
					OFFSET 0.000000 0.000000 0.000000
					CHANNELS 3 Zrotation Yrotation Xrotation
					JOINT LeftArm
					{
						OFFSET 3.362410 1.200890 -0.311210
						CHANNELS 3 Zrotation Yrotation Xrotation
						JOINT LeftForeArm
						{
							OFFSET 4.983000 -0.000000 -0.000000
							CHANNELS 3 Zrotation Yrotation Xrotation
							JOINT LeftHand
							{
								OFFSET 3.483560 -0.000000 -0.000000
								CHANNELS 3 Zrotation Yrotation Xrotation
								JOINT LeftFingerBase
								{
									OFFSET 0.000000 0.000000 0.000000
									CHANNELS 3 Zrotation Yrotation Xrotation
									JOINT LeftHandIndex1
									{
										OFFSET 0.715260 -0.000000 -0.000000
										CHANNELS 3 Zrotation Yrotation Xrotation
										End Site
										{
											OFFSET 0.000000 0.000000 0.000000
										}
									}
								}
								JOINT LThumb
								{
									OFFSET 0.000000 0.000000 0.000000
									CHANNELS 3 Zrotation Yrotation Xrotation
									End Site
									{
										OFFSET 0.000000 0.000000 0.000000
									}
								}
							}
						}
					}
				}
				JOINT RightShoulder
				{
					OFFSET 0.000000 0.000000 0.000000
					CHANNELS 3 Zrotation Yrotation Xrotation
					JOINT RightArm
					{
						OFFSET -3.136600 1.374050 -0.404650
						CHANNELS 3 Zrotation Yrotation Xrotation
						JOINT RightForeArm
						{
							OFFSET -5.241900 -0.000000 -0.000000
							CHANNELS 3 Zrotation Yrotation Xrotation
							JOINT RightHand
							{
								OFFSET -3.444170 -0.000000 -0.000000
								CHANNELS 3 Zrotation Yrotation Xrotation
								JOINT RightFingerBase
								{
									OFFSET 0.000000 0.000000 0.000000
									CHANNELS 3 Zrotation Yrotation Xrotation
									JOINT RightHandIndex1
									{
										OFFSET -0.622530 -0.000000 -0.000000
										CHANNELS 3 Zrotation Yrotation Xrotation
										End Site
										{
											OFFSET 0.000000 0.000000 0.000000
										}
									}
								}
								JOINT RThumb
								{
									OFFSET 0.000000 0.000000 0.000000
									CHANNELS 3 Zrotation Yrotation Xrotation
									End Site
									{
										OFFSET 0.000000 0.000000 0.000000
									}
								}
							}
						}
					}
				}
			}
		}
	}
}
}
MOTION
Frames: 6
Frame Time: 0.008333
0.198887 17.167590 0.013547 -79.213627 83.888252 -64.101990 3.574725 -0.798725 -11.160903 -0.393273 -1.726225 -5.003206 -8.300748 -1.692666 -0.061651 13.758178 -14.713702 -8.648275 -3.851231 -0.315630 -0.151446 0.000000 0.000000 0.000000 1.169285 10.799635 -0.618651 -64.517766 15.211055 17.878618 -0.594048 -78.669255 -0.016881 9.313580 -3.822683 -0.329801 -0.142913 0.194053 0.000000 0.000000 0.000000 0.000000 0.000000 0.000000 0.000000 19.933836 -7.646093 -1.220171 68.600039 7.722346 20.276092 0.052811 86.618235 -0.003502 -2.222947 5.209716 -0.110664 0.081964 -0.414052 0.000000 0.000000 0.000000 0.000000 0.000000 0.000000 0.000000 
0.415328 17.180043 0.032943 -74.089149 83.895368 -58.863305 3.237633 -0.297459 -11.208018 -0.536259 -1.190971 -5.037973 -8.378939 -1.154203 -0.086052 13.736315 -14.136179 -8.605331 -3.833527 -0.314483 -0.145510 0.000000 0.000000 0.000000 1.277841 11.674309 -0.558637 -63.263381 15.707702 17.437001 -0.558620 -78.910421 -0.014143 9.172297 -3.733773 -0.316504 -0.146508 0.179847 0.000000 0.000000 0.000000 0.000000 0.000000 0.000000 0.000000 19.746983 -6.672298 -1.200827 68.802198 8.240622 20.629774 0.064344 86.943222 -0.004550 -2.353404 5.384348 -0.121060 0.082248 -0.428636 0.000000 0.000000 0.000000 0.000000 0.000000 0.000000 0.000000 
0.631937 17.190151 0.049295 -68.680604 83.832115 -53.374269 2.947302 0.202788 -11.219162 -0.663194 -0.660044 -5.067352 -8.434656 -0.620733 -0.112791 13.654729 -13.529894 -8.559266 -3.807164 -0.312466 -0.138818 0.000000 0.000000 0.000000 1.327194 12.584475 -0.490250 -62.017565 16.108994 16.960324 -0.528679 -79.126303 -0.011600 9.048607 -3.663064 -0.305703 -0.150795 0.166652 0.000000 0.000000 0.000000 0.000000 0.000000 0.000000 0.000000 19.456129 -5.679330 -1.189356 68.994019 8.769470 21.024656 0.078842 87.246127 -0.005555 -2.454765 5.557490 -0.130272 0.081528 -0.442907 0.000000 0.000000 0.000000 0.000000 0.000000 0.000000 0.000000 
0.849016 17.197832 0.062848 -63.435226 83.714643 -48.076855 2.695725 0.687719 -11.199169 -0.773934 -0.146945 -5.090201 -8.465595 -0.105548 -0.135771 13.517434 -12.904011 -8.514899 -3.771525 -0.309498 -0.132575 0.000000 0.000000 0.000000 1.330142 13.532144 -0.413250 -60.804480 16.409334 16.444871 -0.505363 -79.297865 -0.009228 8.945314 -3.621957 -0.298100 -0.155774 0.154665 0.000000 0.000000 0.000000 0.000000 0.000000 0.000000 0.000000 19.066376 -4.683477 -1.189204 69.178493 9.314348 21.466269 0.095684 87.524325 -0.006430 -2.513100 5.714705 -0.137005 0.079537 -0.456397 0.000000 0.000000 0.000000 0.000000 0.000000 0.000000 0.000000 
1.066643 17.203230 0.074091 -58.643262 83.568498 -43.262839 2.474747 1.144688 -11.145253 -0.869325 0.336822 -5.105205 -8.472471 0.380037 -0.154624 13.332093 -12.295426 -8.476227 -3.727505 -0.305662 -0.127663 0.000000 0.000000 0.000000 1.273189 14.468802 -0.332451 -59.620235 16.671245 15.854294 -0.487064 -79.463849 -0.007009 8.857420 -3.613635 -0.293897 -0.161044 0.143802 0.000000 0.000000 0.000000 0.000000 0.000000 0.000000 0.000000 18.597248 -3.731549 -1.193563 69.355095 9.917716 21.988192 0.114681 87.757001 -0.007063 -2.523119 5.842486 -0.140558 0.076674 -0.468615 -0.000000 0.000000 0.000000 0.000000 0.000000 0.000000 0.000000 
1.285277 17.206283 0.083206 -54.536554 83.408150 -39.148040 2.290652 1.567215 -11.074285 -0.947924 0.783217 -5.113288 -8.456089 0.828389 -0.160723 13.107520 -11.692668 -8.446773 -3.675626 -0.300988 -0.125033 0.000000 0.000000 0.000000 1.188255 15.428480 -0.245632 -58.497785 16.852994 15.213388 -0.475381 -79.580393 -0.004925 8.785697 -3.641600 -0.293091 -0.166737 0.134264 0.000000 0.000000 0.000000 0.000000 0.000000 0.000000 0.000000 18.059157 -2.812740 -1.209646 69.522932 10.555388 22.571549 0.134255 87.961903 -0.007381 -2.472194 5.927485 -0.139638 0.072471 -0.479205 -0.000000 0.000000 0.000000 0.000000 0.000000 0.000000 0.000000 
